<svg width="113" height="29" viewBox="0 0 113 29" fill="none" xmlns="http://www.w3.org/2000/svg">
	<path d="M5.59762 15.9454C5.59762 16.55 5.82771 16.9893 6.16078 17.2268C6.51604 17.4643 6.92592 17.551 7.63645 17.551C8.08053 17.551 8.56902 17.5186 9.10192 17.4538V21.6965C7.99172 21.8045 7.07025 21.8585 6.33751 21.8585C4.47237 21.8585 3.07351 21.459 2.14094 20.6601C1.23057 19.8397 0.775391 18.3606 0.775391 16.2231V9.61609V5.50292V0H5.60279L5.5964 2.86051V4.18063V5.65779H9.09443V9.70528H5.59762V15.9454Z" fill="#070038" />
	<path d="M43.2802 5.88053L47.9591 5.87506V28.2336H43.2802L43.2848 20.6759C42.5789 21.2094 41.8042 21.6418 40.9699 21.9193C40.1356 22.2181 39.2906 22.3675 38.4349 22.3675C36.7664 22.3675 35.3224 22.0047 34.1031 21.279C32.9051 20.532 31.9853 19.5183 31.3435 18.2377C30.7017 16.9572 30.3809 15.5059 30.3809 13.8839C30.3809 12.2619 30.7017 10.8213 31.3435 9.56208C31.9853 8.28154 32.9051 7.27845 34.1031 6.55281C35.3224 5.82717 36.7664 5.46436 38.4349 5.46436C39.312 5.46436 40.157 5.61375 40.9699 5.91254C41.8042 6.18999 42.5743 6.5955 43.2802 7.12906V5.88053ZM39.0446 17.9176C40.264 17.9176 41.2694 17.5548 42.0609 16.8291C42.8738 16.0822 43.2802 15.1111 43.2802 13.9159C43.2802 12.7207 42.8738 11.739 42.0609 10.9707C41.248 10.2023 40.2426 9.81819 39.0446 9.81819C37.8467 9.81819 36.8626 10.1917 36.0925 10.9387C35.3224 11.6856 34.9374 12.6674 34.9374 13.8839C34.9374 15.0791 35.3224 16.0501 36.0925 16.7971C36.8626 17.5441 37.8467 17.9176 39.0446 17.9176Z" fill="#070038" />
	<path d="M68.2136 14.2842L70.855 5.46436H75.714L70.4311 21.8582H65.8982L63.1916 13.2023L60.4523 21.8582H55.952L50.7344 5.46436H55.6259L58.2022 14.1859L60.7132 5.46436H65.6373L68.2136 14.2842Z" fill="#070038" />
	<path d="M24.5619 5.92319H29.4565V22.3109H24.5619L24.5588 21.0647C23.816 21.611 22.9945 22.0261 22.0942 22.3101C21.2165 22.616 20.3274 22.769 19.4271 22.769C17.6716 22.769 16.1523 22.3975 14.8694 21.6547C13.609 20.9118 12.6412 19.8958 11.966 18.6067C11.2907 17.2957 10.9531 15.81 10.9531 14.1494C10.9531 12.4889 11.2907 11.0031 11.966 9.69219C12.6412 8.35938 13.609 7.32154 14.8694 6.57867C16.1523 5.83579 17.6716 5.46436 19.4271 5.46436C20.3499 5.46436 21.2502 5.6173 22.128 5.92319C23.0058 6.22908 23.8191 6.65907 24.5619 7.2053V5.92319ZM20.0686 18.3117C21.329 18.3117 22.3868 17.9184 23.2421 17.1319C24.0974 16.3453 24.525 15.3293 24.525 14.0839C24.525 12.8822 24.0974 11.899 23.2421 11.1342C22.3868 10.3695 21.329 9.98715 20.0686 9.98715C18.8082 9.98715 17.7728 10.3695 16.9626 11.1342C16.1523 11.899 15.7472 12.904 15.7472 14.1494C15.7472 15.3948 16.1523 16.3999 16.9626 17.1646C17.7728 17.9294 18.8082 18.3117 20.0686 18.3117Z" fill="#070038" />
	<path d="M91.1732 5.92319H96.0679V22.3109H91.1732L91.1701 21.0647C90.4274 21.611 89.6059 22.0261 88.7056 22.3101C87.8278 22.616 86.9387 22.769 86.0384 22.769C84.2829 22.769 82.7636 22.3975 81.4807 21.6547C80.2203 20.9118 79.2525 19.8958 78.5773 18.6067C77.9021 17.2957 77.5645 15.81 77.5645 14.1494C77.5645 12.4889 77.9021 11.0031 78.5773 9.69219C79.2525 8.35938 80.2203 7.32154 81.4807 6.57867C82.7636 5.83579 84.2829 5.46436 86.0384 5.46436C86.9612 5.46436 87.8615 5.6173 88.7393 5.92319C89.6171 6.22908 90.4304 6.65907 91.1732 7.2053V5.92319ZM86.6799 18.3117C87.9403 18.3117 88.9982 17.9184 89.8534 17.1319C90.7087 16.3453 91.1364 15.3293 91.1364 14.0839C91.1364 12.8822 90.7087 11.899 89.8534 11.1342C88.9982 10.3695 87.9403 9.98715 86.6799 9.98715C85.4195 9.98715 84.3842 10.3695 83.5739 11.1342C82.7636 11.899 82.3585 12.904 82.3585 14.1494C82.3585 15.3948 82.7636 16.3999 83.5739 17.1646C84.3842 17.9294 85.4195 18.3117 86.6799 18.3117Z" fill="#070038" />
	<path d="M112.721 21.8585H108.119V12.3731C108.119 11.3442 107.829 10.6046 107.25 10.1545C106.671 9.6829 105.984 9.44711 105.191 9.44711C104.526 9.44711 103.946 9.66147 103.453 10.0902C102.959 10.4975 102.648 11.1405 102.52 12.0194V21.8585H97.918V1.54368e-05H102.601V6.94285C103.781 5.9568 104.976 5.46004 106.349 5.46004C107.272 5.46004 108.205 5.66368 109.149 6.07096C110.114 6.45681 110.94 7.15347 111.627 8.16096C112.335 9.16844 112.699 10.5296 112.721 12.2445V21.8585Z" fill="#070038" />
</svg>
