<svg width="92" height="106" viewBox="0 0 92 106" fill="none" xmlns="http://www.w3.org/2000/svg">
	<path d="M2 32.6562L44.5138 3L90.8925 30.6791" stroke="#01060C" stroke-width="4" />
	<ellipse cx="33.113" cy="40.0711" rx="10.3708" ry="10.3797" fill="#4972FF" />
	<ellipse cx="59.7812" cy="40.0711" rx="10.3708" ry="10.3797" fill="#FF454E" />
	<path d="M70.152 66.7605C70.152 72.493 65.5088 77.1402 59.7812 77.1402C54.0536 77.1402 49.4104 72.493 49.4104 66.7605C49.4104 61.028 54.0536 56.3809 59.7812 56.3809C65.5088 56.3809 70.152 61.028 70.152 66.7605Z" fill="#FFBA39" />
	<ellipse cx="33.113" cy="66.7605" rx="10.3708" ry="10.3797" fill="#A8A8A8" />
	<path d="M6.64525 94.0214L6.65778 93.0375L9.17758 93.0696C9.65754 93.0757 10.0353 92.9405 10.3108 92.664C10.5865 92.3795 10.7269 92.0373 10.7319 91.6373C10.7354 91.3653 10.6785 91.1206 10.5613 90.9031C10.4441 90.6775 10.2704 90.4993 10.0401 90.3684C9.8177 90.2375 9.55454 90.1702 9.25056 90.1663L6.69477 90.1337L6.7073 89.1498L9.09511 89.1802C9.49508 89.1853 9.81237 89.0854 10.047 88.8803C10.2897 88.6674 10.4136 88.361 10.4187 87.961C10.4238 87.561 10.3037 87.2555 10.0584 87.0443C9.81316 86.8252 9.48656 86.713 9.0786 86.7078L6.73879 86.678L6.75132 85.6941L9.11513 85.7242C9.65908 85.7311 10.1098 85.8369 10.4672 86.0415C10.8327 86.2381 11.1054 86.4976 11.2853 86.8199C11.4733 87.1424 11.5648 87.4956 11.5599 87.8795C11.5542 88.3275 11.4252 88.7179 11.1729 89.0507C10.9287 89.3836 10.5693 89.6431 10.0949 89.829L10.1955 89.4703C10.729 89.6691 11.1413 89.9664 11.4322 90.3621C11.7313 90.7499 11.8775 91.2078 11.8708 91.7358C11.8652 92.1758 11.7521 92.5704 11.5317 92.9196C11.3112 93.2688 10.9956 93.5488 10.5849 93.7596C10.1823 93.9625 9.689 94.0602 9.10505 94.0528L6.64525 94.0214ZM5.88931 94.0118L5.99538 85.6845L7.12329 85.6988L7.01722 94.0262L5.88931 94.0118ZM15.4636 94.2538C14.9996 94.2479 14.581 94.1385 14.2076 93.9257C13.8424 93.7051 13.5582 93.4054 13.355 93.0268C13.1518 92.6482 13.0534 92.2109 13.0597 91.7149L13.1019 88.4032L14.1818 88.417L14.1402 91.6807C14.1363 91.9927 14.1848 92.2653 14.2858 92.4986C14.395 92.724 14.5528 92.8981 14.7592 93.0207C14.9657 93.1433 15.2089 93.2064 15.4889 93.21C15.9128 93.2154 16.2465 93.0876 16.4898 92.8267C16.7333 92.5578 16.858 92.1874 16.864 91.7154L16.9056 88.4517L17.9855 88.4654L17.9433 91.7771C17.937 92.2731 17.8275 92.7077 17.6147 93.0811C17.4019 93.4544 17.1102 93.7467 16.7394 93.958C16.3768 94.1614 15.9515 94.26 15.4636 94.2538ZM19.3723 94.1835L19.4449 88.484L20.5248 88.4978L20.4522 94.1973L19.3723 94.1835ZM19.9994 87.351C19.7994 87.3484 19.6362 87.2823 19.5098 87.1527C19.3836 87.0151 19.3217 86.8463 19.3243 86.6463C19.3267 86.4543 19.3928 86.2952 19.5224 86.1688C19.6521 86.0344 19.8169 85.9685 20.0169 85.9711C20.2169 85.9736 20.38 86.0437 20.5063 86.1813C20.6327 86.311 20.6946 86.4718 20.6922 86.6637C20.6896 86.8637 20.6235 87.0309 20.4938 87.1653C20.3641 87.2916 20.1993 87.3535 19.9994 87.351ZM22.0437 94.2176L22.1528 85.6503L23.2327 85.664L23.1236 94.2313L22.0437 94.2176ZM27.1139 94.4022C26.5859 94.3954 26.1156 94.2614 25.7029 94.0002C25.2903 93.7309 24.9628 93.3707 24.7206 92.9196C24.4863 92.4685 24.3727 91.9631 24.3798 91.4031C24.387 90.8431 24.5134 90.3407 24.7591 89.8958C25.0128 89.451 25.3493 89.0993 25.7686 88.8406C26.1879 88.5819 26.6616 88.4559 27.1895 88.4626C27.6135 88.468 27.9963 88.5649 28.3379 88.7533C28.6796 88.9337 28.9525 89.1852 29.1564 89.5078C29.3684 89.8225 29.4837 90.188 29.5024 90.6043L29.4806 92.3201C29.4514 92.7278 29.3308 93.0903 29.1187 93.4076C28.9066 93.7249 28.6275 93.9734 28.2811 94.153C27.9349 94.3246 27.5458 94.4077 27.1139 94.4022ZM27.3068 93.3845C27.6668 93.3891 27.9799 93.3091 28.246 93.1445C28.5201 92.98 28.735 92.7547 28.8906 92.4686C29.0464 92.1746 29.1267 91.8396 29.1315 91.4636C29.1365 91.0717 29.0608 90.7307 28.9045 90.4406C28.7562 90.1507 28.5471 89.9201 28.2772 89.7486C28.0154 89.5773 27.7045 89.4893 27.3445 89.4847C26.9846 89.4801 26.6675 89.5601 26.3934 89.7246C26.1193 89.8891 25.9003 90.1184 25.7366 90.4123C25.5809 90.6983 25.5007 91.0293 25.4959 91.4053C25.491 91.7893 25.5627 92.1302 25.7109 92.4281C25.8672 92.7181 26.0803 92.9489 26.3501 93.1203C26.628 93.2919 26.9469 93.38 27.3068 93.3845ZM30.1152 94.3204L29.0232 94.3065L29.0428 92.7706L29.2645 91.3813L29.0781 89.9988L29.1324 85.7392L30.2243 85.7531L30.1152 94.3204ZM36.6056 94.5231C36.0856 94.5164 35.6153 94.3824 35.1946 94.1211C34.774 93.8517 34.4425 93.4914 34.2003 93.0403C33.966 92.5893 33.8524 92.0838 33.8595 91.5238C33.8667 90.9639 33.9931 90.4615 34.2388 90.0166C34.4925 89.5717 34.829 89.22 35.2483 88.9613C35.6756 88.7027 36.1533 88.5768 36.6812 88.5835C37.1132 88.589 37.496 88.6859 37.8296 88.8742C38.1713 89.0546 38.4442 89.3061 38.6481 89.6287C38.8521 89.9433 38.9634 90.3088 38.9821 90.725L38.9603 92.4409C38.9311 92.8485 38.8105 93.211 38.5984 93.5284C38.3943 93.8458 38.1192 94.0943 37.7728 94.2739C37.4346 94.4456 37.0455 94.5287 36.6056 94.5231ZM36.7985 93.5054C37.3345 93.5123 37.7688 93.3378 38.1013 92.982C38.434 92.6182 38.6039 92.1523 38.6112 91.5844C38.6162 91.1924 38.5445 90.8515 38.3962 90.5615C38.256 90.2637 38.0509 90.0331 37.7809 89.8697C37.5111 89.6982 37.1962 89.6102 36.8362 89.6056C36.4763 89.601 36.1552 89.6809 35.8731 89.8454C35.599 90.0099 35.38 90.2391 35.2163 90.533C35.0606 90.8191 34.9804 91.1501 34.9756 91.5261C34.9707 91.91 35.0424 92.251 35.1906 92.5489C35.3469 92.8389 35.564 93.0697 35.8418 93.2412C36.1197 93.4128 36.4386 93.5009 36.7985 93.5054ZM38.5029 94.4272L38.5225 92.8913L38.7442 91.5021L38.5578 90.1196L38.5755 88.7277L39.6675 88.7416L39.5949 94.4411L38.5029 94.4272ZM45.1988 94.5125L45.2411 91.1888C45.2466 90.7568 45.1152 90.3991 44.8467 90.1157C44.5783 89.8322 44.2281 89.6878 43.7962 89.6823C43.5082 89.6786 43.2514 89.7393 43.0258 89.8645C42.8002 89.9896 42.622 90.1633 42.4911 90.3857C42.3603 90.608 42.293 90.8632 42.2894 91.1512L41.8486 90.8935C41.8541 90.4616 41.955 90.0788 42.1512 89.7453C42.3475 89.4118 42.6189 89.1512 42.9653 88.9636C43.3118 88.768 43.701 88.673 44.133 88.6785C44.565 88.684 44.9436 88.7968 45.2688 89.017C45.602 89.2372 45.8624 89.5246 46.0499 89.879C46.2375 90.2254 46.3288 90.5946 46.3238 90.9866L46.2787 94.5263L45.1988 94.5125ZM41.1671 94.4612L41.2397 88.7616L42.3196 88.7754L42.247 94.4749L41.1671 94.4612ZM50.1511 94.6956C49.6231 94.6889 49.1528 94.5549 48.7401 94.2936C48.3275 94.0243 48 93.6641 47.7578 93.213C47.5235 92.762 47.4099 92.2565 47.417 91.6965C47.4242 91.1366 47.5506 90.6342 47.7963 90.1892C48.05 89.7444 48.3865 89.3927 48.8058 89.134C49.2251 88.8753 49.6988 88.7494 50.2267 88.7561C50.6507 88.7615 51.0335 88.8584 51.3751 89.0467C51.7168 89.2271 51.9897 89.4786 52.1936 89.8012C52.4056 90.1159 52.5209 90.4814 52.5396 90.8977L52.5178 92.6136C52.4886 93.0212 52.368 93.3837 52.1559 93.7011C51.9438 94.0184 51.6646 94.2668 51.3183 94.4464C50.9721 94.6181 50.583 94.7011 50.1511 94.6956ZM50.344 93.678C50.704 93.6826 51.0171 93.6025 51.2832 93.4379C51.5573 93.2734 51.7722 93.0481 51.9278 92.7621C52.0836 92.468 52.1639 92.133 52.1687 91.7571C52.1736 91.3651 52.098 91.0241 51.9417 90.7341C51.7933 90.4442 51.5843 90.2135 51.3144 90.042C51.0526 89.8707 50.7417 89.7827 50.3817 89.7781C50.0217 89.7736 49.7047 89.8535 49.4306 90.018C49.1565 90.1826 48.9375 90.4118 48.7738 90.7057C48.6181 90.9918 48.5379 91.3228 48.5331 91.6988C48.5282 92.0827 48.5999 92.4237 48.7481 92.7216C48.9044 93.0116 49.1175 93.2423 49.3873 93.4138C49.6652 93.5853 49.9841 93.6734 50.344 93.678ZM53.1524 94.6138L52.0604 94.5999L52.08 93.064L52.3017 91.6747L52.1153 90.2923L52.1696 86.0326L53.2615 86.0465L53.1524 94.6138ZM59.6308 94.8164C59.1028 94.8096 58.6325 94.6756 58.2198 94.4143C57.8072 94.1451 57.4797 93.7849 57.2375 93.3337C57.0032 92.8827 56.8896 92.3772 56.8967 91.8173C56.9039 91.2573 57.0303 90.7549 57.276 90.31C57.5297 89.8652 57.8662 89.5134 58.2855 89.2548C58.7048 88.9961 59.1785 88.8701 59.7064 88.8768C60.1304 88.8822 60.5132 88.9791 60.8548 89.1675C61.1965 89.3479 61.4694 89.5993 61.6733 89.922C61.8853 90.2367 62.0006 90.6022 62.0193 91.0185L61.9975 92.7343C61.9683 93.142 61.8477 93.5045 61.6356 93.8218C61.4235 94.1391 61.1443 94.3876 60.798 94.5672C60.4518 94.7388 60.0627 94.8219 59.6308 94.8164ZM59.8237 93.7987C60.1837 93.8033 60.4968 93.7233 60.7629 93.5587C61.037 93.3941 61.2519 93.1689 61.4075 92.8828C61.5633 92.5888 61.6436 92.2538 61.6484 91.8778C61.6533 91.4858 61.5777 91.1449 61.4214 90.8548C61.273 90.5649 61.064 90.3342 60.7941 90.1628C60.5323 89.9914 60.2214 89.9035 59.8614 89.8989C59.5014 89.8943 59.1844 89.9743 58.9103 90.1388C58.6362 90.3033 58.4172 90.5325 58.2535 90.8265C58.0978 91.1125 58.0176 91.4435 58.0128 91.8195C58.0079 92.2035 58.0796 92.5444 58.2278 92.8423C58.3841 93.1323 58.5972 93.3631 58.867 93.5345C59.1449 93.7061 59.4638 93.7941 59.8237 93.7987ZM62.6321 94.7346L61.5401 94.7207L61.5597 93.1848L61.7814 91.7955L61.595 90.413L61.6493 86.1534L62.7412 86.1673L62.6321 94.7346ZM66.8426 94.9082C66.2746 94.901 65.7643 94.7665 65.3116 94.5047C64.859 94.2349 64.5035 93.8743 64.2453 93.423C63.987 92.9717 63.8615 92.462 63.8687 91.8941C63.8758 91.3341 64.0102 90.8318 64.2719 90.3871C64.5416 89.9425 64.8981 89.595 65.3413 89.3446C65.7926 89.0864 66.2943 88.9607 66.8462 88.9678C67.3742 88.9745 67.8366 89.1004 68.2335 89.3455C68.6384 89.5907 68.9502 89.9267 69.1688 90.3535C69.3953 90.7804 69.5052 91.2618 69.4984 91.7978C69.4974 91.8778 69.4922 91.9657 69.483 92.0616C69.4739 92.1495 69.4566 92.2533 69.4311 92.373L64.6194 92.3117L64.6309 91.4118L68.8666 91.4657L68.4662 91.8086C68.4711 91.4247 68.4072 91.0998 68.2746 90.8341C68.142 90.5604 67.9527 90.35 67.7066 90.2028C67.4605 90.0477 67.1615 89.9679 66.8095 89.9634C66.4416 89.9587 66.1166 90.0346 65.8346 90.191C65.5525 90.3474 65.3337 90.5686 65.178 90.8547C65.0224 91.1407 64.9421 91.4797 64.9371 91.8717C64.932 92.2717 65.0075 92.6247 65.1636 92.9307C65.3198 93.2287 65.5449 93.4636 65.8387 93.6353C66.1326 93.7991 66.4716 93.8834 66.8555 93.8883C67.1755 93.8924 67.4682 93.8401 67.7336 93.7315C68.007 93.6229 68.2411 93.4579 68.436 93.2364L69.1229 93.9532C68.8469 94.2697 68.5078 94.5094 68.1057 94.6723C67.7116 94.8353 67.2905 94.9139 66.8426 94.9082ZM73.2396 94.9897C72.6797 94.9826 72.1734 94.8441 71.7208 94.5743C71.2762 94.3046 70.9248 93.9441 70.6665 93.4928C70.4163 93.0336 70.2947 92.528 70.3018 91.976C70.3089 91.4161 70.4433 90.9138 70.705 90.469C70.9747 90.0244 71.3351 89.677 71.7864 89.4267C72.2457 89.1686 72.7553 89.043 73.3153 89.0502C73.7553 89.0558 74.1621 89.145 74.536 89.3177C74.9099 89.4825 75.2309 89.7226 75.4989 90.0381L74.7698 90.7488C74.5964 90.5386 74.3824 90.3799 74.1278 90.2726C73.8812 90.1575 73.606 90.098 73.302 90.0941C72.942 90.0895 72.621 90.1694 72.3389 90.3338C72.0568 90.4903 71.834 90.7114 71.6704 90.9974C71.5067 91.2833 71.4225 91.6143 71.4177 91.9902C71.4129 92.3662 71.4887 92.6992 71.645 92.9892C71.8013 93.2792 72.0184 93.51 72.2962 93.6816C72.5741 93.8531 72.893 93.9412 73.2529 93.9458C73.5569 93.9497 73.8335 93.9012 74.0828 93.8003C74.3403 93.6916 74.5623 93.5344 74.7489 93.3288L75.4477 94.0577C75.1798 94.3584 74.8528 94.5902 74.4667 94.7533C74.0886 94.9165 73.6796 94.9953 73.2396 94.9897ZM78.9931 95.063C78.4331 95.0558 77.9308 94.9174 77.4862 94.6478C77.0416 94.3781 76.6902 94.0176 76.4319 93.5662C76.1738 93.1069 76.0482 92.5973 76.0554 92.0373C76.0624 91.4854 76.2007 90.9911 76.4703 90.5545C76.74 90.1099 77.1005 89.7584 77.5518 89.5002C78.0031 89.2419 78.5088 89.1163 79.0687 89.1235C79.6207 89.1305 80.119 89.2689 80.5636 89.5385C81.0163 89.8003 81.3718 90.1569 81.63 90.6082C81.8883 91.0595 82.0139 91.5612 82.0069 92.1131C81.9998 92.6731 81.8613 93.1794 81.5915 93.632C81.3218 94.0766 80.9573 94.4279 80.498 94.6861C80.0467 94.9444 79.545 95.07 78.9931 95.063ZM79.0064 94.0191C79.3663 94.0237 79.6874 93.9437 79.9695 93.7793C80.2516 93.6149 80.4745 93.3897 80.6382 93.1038C80.8019 92.8098 80.8862 92.4749 80.891 92.0989C80.8957 91.7309 80.8158 91.4019 80.6515 91.1118C80.4952 90.8218 80.2781 90.595 80.0001 90.4314C79.7303 90.26 79.4154 90.172 79.0554 90.1674C78.6955 90.1628 78.3744 90.2427 78.0923 90.4071C77.8103 90.5636 77.5874 90.7847 77.4238 91.0707C77.2601 91.3566 77.176 91.6836 77.1713 92.0515C77.1665 92.4275 77.2422 92.7645 77.3984 93.0625C77.5547 93.3525 77.7718 93.5833 78.0497 93.7549C78.3275 93.9264 78.6464 94.0145 79.0064 94.0191ZM83.1871 94.9964L83.2597 89.2969L84.3396 89.3106L84.267 95.0102L83.1871 94.9964ZM84.3085 91.7584L83.9028 91.5732C83.9121 90.8453 84.0874 90.2675 84.4289 89.8398C84.7704 89.4121 85.2571 89.2023 85.889 89.2103C86.177 89.214 86.4363 89.2693 86.667 89.3763C86.8978 89.4752 87.1116 89.6419 87.3087 89.8765L86.5914 90.5994C86.4731 90.4699 86.3422 90.3762 86.199 90.3184C86.0557 90.2605 85.8881 90.2304 85.6961 90.228C85.2961 90.2229 84.9665 90.3467 84.7073 90.5994C84.448 90.8521 84.3151 91.2385 84.3085 91.7584Z" fill="#01060C" />
	<path d="M27.2746 104.06C26.9746 104.06 26.6966 104.006 26.4406 103.898C26.1846 103.786 25.9606 103.632 25.7686 103.436C25.5806 103.24 25.4346 103.012 25.3306 102.752C25.2266 102.492 25.1746 102.214 25.1746 101.918C25.1746 101.618 25.2266 101.338 25.3306 101.078C25.4346 100.818 25.5806 100.592 25.7686 100.4C25.9606 100.204 26.1826 100.052 26.4346 99.944C26.6906 99.832 26.9686 99.776 27.2686 99.776C27.5966 99.776 27.8846 99.832 28.1326 99.944C28.3806 100.056 28.6006 100.208 28.7926 100.4L28.4026 100.79C28.2706 100.642 28.1086 100.526 27.9166 100.442C27.7286 100.358 27.5126 100.316 27.2686 100.316C27.0486 100.316 26.8466 100.356 26.6626 100.436C26.4786 100.512 26.3186 100.622 26.1826 100.766C26.0466 100.91 25.9406 101.08 25.8646 101.276C25.7926 101.472 25.7566 101.686 25.7566 101.918C25.7566 102.15 25.7926 102.364 25.8646 102.56C25.9406 102.756 26.0466 102.926 26.1826 103.07C26.3186 103.214 26.4786 103.326 26.6626 103.406C26.8466 103.482 27.0486 103.52 27.2686 103.52C27.5286 103.52 27.7546 103.478 27.9466 103.394C28.1386 103.306 28.3006 103.188 28.4326 103.04L28.8226 103.424C28.6306 103.624 28.4046 103.78 28.1446 103.892C27.8886 104.004 27.5986 104.06 27.2746 104.06ZM30.6218 104.06C30.3418 104.06 30.0898 103.994 29.8658 103.862C29.6418 103.73 29.4638 103.552 29.3318 103.328C29.1998 103.1 29.1338 102.846 29.1338 102.566C29.1338 102.29 29.1998 102.042 29.3318 101.822C29.4638 101.598 29.6418 101.42 29.8658 101.288C30.0898 101.156 30.3418 101.09 30.6218 101.09C30.8978 101.09 31.1478 101.156 31.3718 101.288C31.5998 101.416 31.7798 101.592 31.9118 101.816C32.0438 102.04 32.1098 102.29 32.1098 102.566C32.1098 102.846 32.0438 103.1 31.9118 103.328C31.7798 103.552 31.5998 103.73 31.3718 103.862C31.1478 103.994 30.8978 104.06 30.6218 104.06ZM30.6218 103.538C30.8018 103.538 30.9618 103.496 31.1018 103.412C31.2418 103.328 31.3518 103.214 31.4318 103.07C31.5118 102.922 31.5518 102.754 31.5518 102.566C31.5518 102.382 31.5098 102.218 31.4258 102.074C31.3458 101.93 31.2358 101.818 31.0958 101.738C30.9598 101.654 30.8018 101.612 30.6218 101.612C30.4418 101.612 30.2818 101.654 30.1418 101.738C30.0018 101.818 29.8918 101.93 29.8118 102.074C29.7318 102.218 29.6918 102.382 29.6918 102.566C29.6918 102.754 29.7318 102.922 29.8118 103.07C29.8918 103.214 30.0018 103.328 30.1418 103.412C30.2818 103.496 30.4418 103.538 30.6218 103.538ZM34.7343 104V102.338C34.7343 102.122 34.6663 101.944 34.5303 101.804C34.3943 101.664 34.2183 101.594 34.0023 101.594C33.8583 101.594 33.7303 101.626 33.6183 101.69C33.5063 101.754 33.4183 101.842 33.3543 101.954C33.2903 102.066 33.2583 102.194 33.2583 102.338L33.0363 102.212C33.0363 101.996 33.0843 101.804 33.1803 101.636C33.2763 101.468 33.4103 101.336 33.5823 101.24C33.7543 101.14 33.9483 101.09 34.1643 101.09C34.3803 101.09 34.5703 101.144 34.7343 101.252C34.9023 101.36 35.0343 101.502 35.1303 101.678C35.2263 101.85 35.2743 102.034 35.2743 102.23V104H34.7343ZM32.7183 104V101.15H33.2583V104H32.7183ZM36.9114 104.06C36.7514 104.06 36.5994 104.04 36.4554 104C36.3154 103.956 36.1854 103.896 36.0654 103.82C35.9454 103.74 35.8414 103.646 35.7534 103.538L36.1014 103.19C36.2054 103.318 36.3254 103.414 36.4614 103.478C36.5974 103.538 36.7494 103.568 36.9174 103.568C37.0854 103.568 37.2154 103.54 37.3074 103.484C37.3994 103.424 37.4454 103.342 37.4454 103.238C37.4454 103.134 37.4074 103.054 37.3314 102.998C37.2594 102.938 37.1654 102.89 37.0494 102.854C36.9334 102.814 36.8094 102.776 36.6774 102.74C36.5494 102.7 36.4274 102.65 36.3114 102.59C36.1954 102.53 36.0994 102.448 36.0234 102.344C35.9514 102.24 35.9154 102.102 35.9154 101.93C35.9154 101.758 35.9574 101.61 36.0414 101.486C36.1254 101.358 36.2414 101.26 36.3894 101.192C36.5414 101.124 36.7234 101.09 36.9354 101.09C37.1594 101.09 37.3574 101.13 37.5294 101.21C37.7054 101.286 37.8494 101.402 37.9614 101.558L37.6134 101.906C37.5334 101.802 37.4334 101.722 37.3134 101.666C37.1974 101.61 37.0654 101.582 36.9174 101.582C36.7614 101.582 36.6414 101.61 36.5574 101.666C36.4774 101.718 36.4374 101.792 36.4374 101.888C36.4374 101.984 36.4734 102.058 36.5454 102.11C36.6174 102.162 36.7114 102.206 36.8274 102.242C36.9474 102.278 37.0714 102.316 37.1994 102.356C37.3274 102.392 37.4494 102.442 37.5654 102.506C37.6814 102.57 37.7754 102.656 37.8474 102.764C37.9234 102.872 37.9614 103.014 37.9614 103.19C37.9614 103.458 37.8654 103.67 37.6734 103.826C37.4854 103.982 37.2314 104.06 36.9114 104.06ZM39.0039 104V99.956H39.5439V104H39.0039ZM38.3019 101.642V101.15H40.2459V101.642H38.3019ZM40.7749 104V101.15H41.3149V104H40.7749ZM41.3149 102.374L41.1109 102.284C41.1109 101.92 41.1949 101.63 41.3629 101.414C41.5309 101.198 41.7729 101.09 42.0889 101.09C42.2329 101.09 42.3629 101.116 42.4789 101.168C42.5949 101.216 42.7029 101.298 42.8029 101.414L42.4489 101.78C42.3889 101.716 42.3229 101.67 42.2509 101.642C42.1789 101.614 42.0949 101.6 41.9989 101.6C41.7989 101.6 41.6349 101.664 41.5069 101.792C41.3789 101.92 41.3149 102.114 41.3149 102.374ZM44.3291 104.06C44.0971 104.06 43.8871 104.008 43.6991 103.904C43.5151 103.796 43.3711 103.648 43.2671 103.46C43.1631 103.272 43.1111 103.054 43.1111 102.806V101.15H43.6511V102.782C43.6511 102.938 43.6771 103.074 43.7291 103.19C43.7851 103.302 43.8651 103.388 43.9691 103.448C44.0731 103.508 44.1951 103.538 44.3351 103.538C44.5471 103.538 44.7131 103.472 44.8331 103.34C44.9531 103.204 45.0131 103.018 45.0131 102.782V101.15H45.5531V102.806C45.5531 103.054 45.5011 103.272 45.3971 103.46C45.2931 103.648 45.1491 103.796 44.9651 103.904C44.7851 104.008 44.5731 104.06 44.3291 104.06ZM47.5789 104.06C47.2989 104.06 47.0449 103.994 46.8169 103.862C46.5929 103.73 46.4149 103.552 46.2829 103.328C46.1549 103.1 46.0909 102.848 46.0909 102.572C46.0909 102.292 46.1549 102.04 46.2829 101.816C46.4149 101.592 46.5929 101.416 46.8169 101.288C47.0449 101.156 47.2989 101.09 47.5789 101.09C47.7989 101.09 48.0029 101.132 48.1909 101.216C48.3789 101.296 48.5409 101.414 48.6769 101.57L48.3169 101.93C48.2289 101.826 48.1209 101.748 47.9929 101.696C47.8689 101.64 47.7309 101.612 47.5789 101.612C47.3989 101.612 47.2389 101.654 47.0989 101.738C46.9589 101.818 46.8489 101.93 46.7689 102.074C46.6889 102.218 46.6489 102.384 46.6489 102.572C46.6489 102.76 46.6889 102.926 46.7689 103.07C46.8489 103.214 46.9589 103.328 47.0989 103.412C47.2389 103.496 47.3989 103.538 47.5789 103.538C47.7309 103.538 47.8689 103.512 47.9929 103.46C48.1209 103.404 48.2309 103.324 48.3229 103.22L48.6769 103.58C48.5449 103.732 48.3829 103.85 48.1909 103.934C48.0029 104.018 47.7989 104.06 47.5789 104.06ZM49.6153 104V99.956H50.1553V104H49.6153ZM48.9133 101.642V101.15H50.8573V101.642H48.9133ZM51.3922 104V101.15H51.9322V104H51.3922ZM51.6622 100.58C51.5622 100.58 51.4802 100.548 51.4162 100.484C51.3522 100.416 51.3202 100.332 51.3202 100.232C51.3202 100.136 51.3522 100.056 51.4162 99.992C51.4802 99.924 51.5622 99.89 51.6622 99.89C51.7622 99.89 51.8442 99.924 51.9082 99.992C51.9722 100.056 52.0042 100.136 52.0042 100.232C52.0042 100.332 51.9722 100.416 51.9082 100.484C51.8442 100.548 51.7622 100.58 51.6622 100.58ZM54.03 104.06C53.75 104.06 53.498 103.994 53.274 103.862C53.05 103.73 52.872 103.552 52.74 103.328C52.608 103.1 52.542 102.846 52.542 102.566C52.542 102.29 52.608 102.042 52.74 101.822C52.872 101.598 53.05 101.42 53.274 101.288C53.498 101.156 53.75 101.09 54.03 101.09C54.306 101.09 54.556 101.156 54.78 101.288C55.008 101.416 55.188 101.592 55.32 101.816C55.452 102.04 55.518 102.29 55.518 102.566C55.518 102.846 55.452 103.1 55.32 103.328C55.188 103.552 55.008 103.73 54.78 103.862C54.556 103.994 54.306 104.06 54.03 104.06ZM54.03 103.538C54.21 103.538 54.37 103.496 54.51 103.412C54.65 103.328 54.76 103.214 54.84 103.07C54.92 102.922 54.96 102.754 54.96 102.566C54.96 102.382 54.918 102.218 54.834 102.074C54.754 101.93 54.644 101.818 54.504 101.738C54.368 101.654 54.21 101.612 54.03 101.612C53.85 101.612 53.69 101.654 53.55 101.738C53.41 101.818 53.3 101.93 53.22 102.074C53.14 102.218 53.1 102.382 53.1 102.566C53.1 102.754 53.14 102.922 53.22 103.07C53.3 103.214 53.41 103.328 53.55 103.412C53.69 103.496 53.85 103.538 54.03 103.538ZM58.1425 104V102.338C58.1425 102.122 58.0745 101.944 57.9385 101.804C57.8025 101.664 57.6265 101.594 57.4105 101.594C57.2665 101.594 57.1385 101.626 57.0265 101.69C56.9145 101.754 56.8265 101.842 56.7625 101.954C56.6985 102.066 56.6665 102.194 56.6665 102.338L56.4445 102.212C56.4445 101.996 56.4925 101.804 56.5885 101.636C56.6845 101.468 56.8185 101.336 56.9905 101.24C57.1625 101.14 57.3565 101.09 57.5725 101.09C57.7885 101.09 57.9785 101.144 58.1425 101.252C58.3105 101.36 58.4425 101.502 58.5385 101.678C58.6345 101.85 58.6825 102.034 58.6825 102.23V104H58.1425ZM56.1265 104V101.15H56.6665V104H56.1265Z" fill="#444444" />
</svg>
